<svg width="319" height="294" viewBox="0 0 319 294" fill="none" xmlns="http://www.w3.org/2000/svg">
<path d="M100.059 177.064C99.9591 176.463 99.8588 175.811 99.7585 175.109C99.7585 174.407 99.7585 173.705 99.7585 173.003C99.7585 169.895 100.26 167.138 101.263 164.731C102.265 162.324 103.569 160.169 105.173 158.263C106.878 156.258 108.633 154.403 110.437 152.698C112.343 150.994 114.198 149.339 116.003 147.735C117.607 146.331 119.011 144.927 120.214 143.524C121.517 142.019 122.57 140.515 123.373 139.011C124.175 137.407 124.576 135.803 124.576 134.198C124.576 132.093 124.024 130.288 122.921 128.784C121.919 127.179 120.465 125.976 118.559 125.174C116.755 124.372 114.448 123.971 111.641 123.971C108.933 123.971 106.527 124.422 104.421 125.324C102.315 126.126 100.661 127.33 99.4577 128.934C98.2544 130.538 97.5024 132.494 97.2016 134.8H76.4453C76.6459 129.084 77.7488 124.271 79.7543 120.361C81.7597 116.45 84.4169 113.342 87.7259 111.035C91.0349 108.629 94.7449 106.924 98.8561 105.922C103.067 104.819 107.379 104.267 111.791 104.267C117.607 104.267 123.122 105.27 128.336 107.275C133.55 109.18 137.762 112.189 140.97 116.3C144.279 120.411 145.934 125.876 145.934 132.694C145.934 136.304 145.332 139.513 144.129 142.32C142.926 145.128 141.271 147.785 139.165 150.292C137.06 152.799 134.653 155.356 131.946 157.963C130.241 159.667 128.537 161.322 126.832 162.926C125.127 164.53 123.673 166.235 122.47 168.04C121.267 169.845 120.515 172.101 120.214 174.808C120.214 175.109 120.164 175.46 120.064 175.861C120.064 176.262 120.064 176.663 120.064 177.064H100.059ZM110.137 213.313C106.727 213.313 103.669 212.21 100.962 210.004C98.3547 207.697 97.0512 204.338 97.0512 199.926C97.0512 195.715 98.3547 192.556 100.962 190.451C103.669 188.245 106.727 187.142 110.137 187.142C113.646 187.142 116.704 188.245 119.312 190.451C121.919 192.556 123.222 195.715 123.222 199.926C123.222 204.338 121.919 207.697 119.312 210.004C116.704 212.21 113.646 213.313 110.137 213.313Z" fill="white"/>
<g filter="url(#filter0_f_97_203)">
<path d="M165.732 73.5214C165.632 73.3012 165.526 73.0619 165.416 72.8033C165.344 72.5345 165.272 72.2656 165.2 71.9967C164.881 70.8061 164.79 69.6984 164.927 68.6737C165.064 67.649 165.342 66.6894 165.761 65.795C166.208 64.8519 166.69 63.9613 167.206 63.1231C167.761 62.2746 168.302 61.4505 168.829 60.6507C169.299 59.9483 169.693 59.2665 170.009 58.6053C170.354 57.8954 170.603 57.2112 170.756 56.5528C170.899 55.8559 170.888 55.2002 170.723 54.5857C170.507 53.7791 170.111 53.1444 169.534 52.6815C168.985 52.1698 168.305 51.8582 167.492 51.7464C166.719 51.6244 165.794 51.7075 164.719 51.9957C163.682 52.2735 162.806 52.6934 162.092 53.2551C161.368 53.7785 160.858 54.4092 160.562 55.1473C160.265 55.8853 160.178 56.7114 160.299 57.6257L152.349 59.756C151.839 57.5462 151.768 55.5894 152.135 53.8856C152.501 52.1819 153.2 50.7185 154.231 49.4955C155.251 48.2341 156.497 47.2004 157.969 46.3944C159.469 45.5396 161.064 44.8859 162.754 44.433C164.982 43.8361 167.197 43.6542 169.4 43.8872C171.593 44.0818 173.515 44.8018 175.166 46.0472C176.855 47.2823 178.05 49.2057 178.75 51.8175C179.12 53.2002 179.219 54.491 179.046 55.6899C178.874 56.8888 178.513 58.0765 177.963 59.2528C177.414 60.4291 176.755 61.6555 175.985 62.932C175.507 63.7599 175.024 64.5686 174.536 65.358C174.048 66.1475 173.666 66.9497 173.39 67.7645C173.114 68.5794 173.058 69.5207 173.22 70.5886C173.251 70.7039 173.268 70.8434 173.271 71.0074C173.312 71.161 173.353 71.3146 173.394 71.4683L165.732 73.5214ZM173.312 86.3716C172.006 86.7215 170.722 86.6129 169.458 86.0458C168.223 85.43 167.379 84.2771 166.926 82.5872C166.494 80.974 166.669 79.6304 167.452 78.5562C168.262 77.4334 169.32 76.697 170.626 76.3471C171.971 75.9869 173.255 76.0955 174.48 76.6729C175.695 77.2119 176.518 78.288 176.951 79.9011C177.403 81.5911 177.249 83.0115 176.487 84.1625C175.715 85.275 174.657 86.0114 173.312 86.3716Z" fill="white"/>
</g>
<g filter="url(#filter1_f_97_203)">
<path d="M12.684 236.117C12.7022 235.928 12.7245 235.725 12.7508 235.506C12.8072 235.296 12.8636 235.086 12.92 234.875C13.1696 233.943 13.5414 233.157 14.0353 232.516C14.5292 231.875 15.0931 231.334 15.7271 230.892C16.3992 230.427 17.0742 230.012 17.7522 229.646C18.4602 229.288 19.1492 228.941 19.8191 228.605C20.4128 228.313 20.9464 228.005 21.4198 227.681C21.9314 227.335 22.3678 226.969 22.7291 226.582C23.0984 226.166 23.3475 225.717 23.4764 225.236C23.6455 224.605 23.6252 224.019 23.4154 223.48C23.2436 222.918 22.9044 222.441 22.3978 222.048C21.9211 221.662 21.262 221.357 20.4204 221.131C19.6088 220.914 18.8512 220.856 18.1474 220.957C17.4518 221.028 16.8592 221.256 16.3696 221.64C15.88 222.025 15.4975 222.55 15.2221 223.218L9 221.55C9.5192 219.853 10.2364 218.499 11.1517 217.488C12.067 216.477 13.1132 215.758 14.2904 215.333C15.4756 214.877 16.7247 214.664 18.0377 214.694C19.3887 214.701 20.7255 214.882 22.0481 215.237C23.7915 215.704 25.3642 216.447 26.7661 217.467C28.1761 218.457 29.197 219.697 29.8286 221.187C30.4903 222.686 30.5474 224.457 29.9997 226.501C29.7097 227.583 29.2716 228.496 28.6854 229.241C28.0992 229.986 27.3898 230.65 26.5572 231.232C25.7246 231.815 24.7979 232.388 23.7769 232.952C23.129 233.326 22.4851 233.685 21.8452 234.029C21.2053 234.373 20.6326 234.767 20.1269 235.212C19.6212 235.656 19.2146 236.272 18.9069 237.059C18.8828 237.15 18.8395 237.251 18.7773 237.363C18.7451 237.483 18.7128 237.603 18.6806 237.724L12.684 236.117ZM12.7933 247.792C11.7713 247.519 10.9431 246.942 10.3087 246.063C9.71241 245.163 9.59147 244.051 9.94585 242.728C10.2841 241.466 10.9286 240.624 11.8792 240.202C12.868 239.758 13.8734 239.673 14.8954 239.947C15.9474 240.229 16.7756 240.805 17.38 241.676C17.9923 242.517 18.1294 243.568 17.7911 244.831C17.4367 246.153 16.7762 247.055 15.8094 247.537C14.8507 247.989 13.8453 248.074 12.7933 247.792Z" fill="white"/>
</g>
<g filter="url(#filter2_f_97_203)">
<path d="M299.091 32.2688C299.013 32.0965 298.93 31.9092 298.844 31.7068C298.788 31.4964 298.731 31.286 298.675 31.0756C298.425 30.1438 298.354 29.2769 298.461 28.4749C298.568 27.673 298.786 26.922 299.114 26.2221C299.464 25.484 299.841 24.7869 300.245 24.131C300.679 23.4669 301.102 22.822 301.515 22.1961C301.883 21.6464 302.191 21.1128 302.439 20.5953C302.709 20.0397 302.904 19.5043 303.023 18.989C303.135 18.4436 303.126 17.9305 302.997 17.4495C302.828 16.8183 302.518 16.3215 302.066 15.9593C301.637 15.5589 301.104 15.315 300.469 15.2275C299.863 15.132 299.14 15.197 298.298 15.4226C297.487 15.64 296.802 15.9686 296.243 16.4082C295.676 16.8178 295.277 17.3114 295.045 17.889C294.813 18.4666 294.745 19.1132 294.84 19.8287L288.618 21.4959C288.219 19.7664 288.163 18.235 288.45 16.9017C288.737 15.5683 289.284 14.4231 290.09 13.4659C290.889 12.4787 291.864 11.6697 293.016 11.0389C294.19 10.37 295.438 9.85836 296.761 9.50398C298.504 9.03684 300.238 8.89444 301.962 9.0768C303.678 9.22909 305.182 9.79257 306.474 10.7672C307.796 11.7339 308.731 13.2391 309.279 15.2831C309.569 16.3652 309.646 17.3754 309.511 18.3137C309.376 19.252 309.093 20.1814 308.664 21.102C308.234 22.0226 307.718 22.9824 307.115 23.9814C306.741 24.6293 306.363 25.2622 305.981 25.8801C305.599 26.4979 305.3 27.1257 305.084 27.7634C304.869 28.4011 304.824 29.1378 304.952 29.9736C304.976 30.0638 304.989 30.173 304.991 30.3013C305.023 30.4215 305.056 30.5417 305.088 30.662L299.091 32.2688ZM305.024 42.3255C304.002 42.5993 302.996 42.5143 302.007 42.0705C301.041 41.5886 300.38 40.6863 300.026 39.3637C299.687 38.1013 299.825 37.0497 300.437 36.2091C301.071 35.3304 301.9 34.7541 302.921 34.4802C303.974 34.1983 304.979 34.2833 305.938 34.7352C306.888 35.157 307.533 35.9992 307.871 37.2616C308.225 38.5842 308.104 39.6958 307.508 40.5966C306.904 41.4673 306.076 42.0436 305.024 42.3255Z" fill="white"/>
</g>
<path d="M269.916 247.994C269.392 247.231 268.836 246.399 268.248 245.498C267.798 244.533 267.348 243.568 266.898 242.602C264.905 238.328 263.826 234.215 263.662 230.263C263.498 226.311 263.908 222.51 264.892 218.862C265.95 215.011 267.174 211.335 268.563 207.834C270.089 204.268 271.579 200.804 273.032 197.44C274.338 194.481 275.369 191.651 276.123 188.949C276.951 186.045 277.434 183.301 277.573 180.719C277.647 177.998 277.17 175.535 276.141 173.329C274.791 170.433 272.876 168.305 270.394 166.944C267.987 165.381 265.216 164.659 262.082 164.777C259.086 164.831 255.657 165.759 251.796 167.559C248.074 169.295 245.054 171.458 242.737 174.05C240.356 176.503 238.852 179.218 238.226 182.196C237.601 185.174 237.82 188.345 238.885 191.709L210.344 205.018C206.955 197.03 205.385 189.704 205.635 183.041C205.885 176.378 207.546 170.4 210.617 165.107C213.624 159.676 217.633 154.953 222.643 150.938C227.727 146.721 233.302 143.198 239.369 140.369C247.366 136.639 255.593 134.482 264.049 133.896C272.44 133.173 280.16 134.609 287.208 138.204C294.395 141.736 300.174 148.19 304.546 157.566C306.861 162.529 308.091 167.327 308.237 171.96C308.382 176.592 307.811 181.307 306.523 186.104C305.235 190.901 303.565 195.96 301.514 201.281C300.263 204.718 298.98 208.086 297.665 211.385C296.349 214.685 295.443 217.961 294.946 221.214C294.448 224.468 294.861 228.052 296.183 231.968C296.376 232.382 296.532 232.896 296.652 233.512C296.909 234.064 297.166 234.615 297.423 235.167L269.916 247.994ZM307.016 291.377C302.328 293.563 297.415 294.007 292.278 292.71C287.214 291.21 283.268 287.427 280.439 281.36C277.738 275.569 277.505 270.39 279.74 265.822C282.048 261.053 285.546 257.575 290.235 255.389C295.06 253.139 299.973 252.695 304.973 254.056C309.908 255.28 313.725 258.788 316.426 264.579C319.255 270.646 319.616 276.1 317.51 280.943C315.34 285.649 311.842 289.126 307.016 291.377Z" fill="white"/>
<defs>
<filter id="filter0_f_97_203" x="144.904" y="36.7891" width="41.2246" height="56.7827" filterUnits="userSpaceOnUse" color-interpolation-filters="sRGB">
<feFlood flood-opacity="0" result="BackgroundImageFix"/>
<feBlend mode="normal" in="SourceGraphic" in2="BackgroundImageFix" result="shape"/>
<feGaussianBlur stdDeviation="3.5" result="effect1_foregroundBlur_97_203"/>
</filter>
<filter id="filter1_f_97_203" x="0" y="205.691" width="39.3716" height="51.2637" filterUnits="userSpaceOnUse" color-interpolation-filters="sRGB">
<feFlood flood-opacity="0" result="BackgroundImageFix"/>
<feBlend mode="normal" in="SourceGraphic" in2="BackgroundImageFix" result="shape"/>
<feGaussianBlur stdDeviation="4.5" result="effect1_foregroundBlur_97_203"/>
</filter>
<filter id="filter2_f_97_203" x="279.27" y="0" width="39.3062" height="51.4824" filterUnits="userSpaceOnUse" color-interpolation-filters="sRGB">
<feFlood flood-opacity="0" result="BackgroundImageFix"/>
<feBlend mode="normal" in="SourceGraphic" in2="BackgroundImageFix" result="shape"/>
<feGaussianBlur stdDeviation="4.5" result="effect1_foregroundBlur_97_203"/>
</filter>
</defs>
</svg>
