<svg width="120" height="76" viewBox="0 0 120 76" fill="none" xmlns="http://www.w3.org/2000/svg">
<path fill-rule="evenodd" clip-rule="evenodd" d="M113.009 74.6785C115.674 75.4205 118.457 73.8608 118.967 71.1421C119.645 67.5317 120 63.8073 120 60C120 26.8629 93.1371 0 60 0C26.8629 0 0 26.8629 0 60C0 63.8673 0.365885 67.6492 1.06493 71.3129C1.58226 74.0242 4.3603 75.5761 7.01937 74.8357C9.68187 74.0942 11.2117 71.3352 10.7389 68.6121C10.2532 65.8143 10 62.9367 10 60C10 32.3858 32.3858 10 60 10C87.6142 10 110 32.3858 110 60C110 62.887 109.755 65.7168 109.286 68.4698C108.822 71.1888 110.352 73.9385 113.009 74.6785Z" fill="#F5F5F5"/>
<mask id="mask0_69_1378" style="mask-type:alpha" maskUnits="userSpaceOnUse" x="0" y="0" width="120" height="76">
<path fill-rule="evenodd" clip-rule="evenodd" d="M113.009 74.6785C115.674 75.4205 118.457 73.8608 118.967 71.1421C119.645 67.5317 120 63.8073 120 60C120 26.8629 93.1371 0 60 0C26.8629 0 0 26.8629 0 60C0 63.8673 0.365885 67.6492 1.06493 71.3129C1.58226 74.0242 4.3603 75.5761 7.01937 74.8357C9.68187 74.0942 11.2117 71.3352 10.7389 68.6121C10.2532 65.8143 10 62.9367 10 60C10 32.3858 32.3858 10 60 10C87.6142 10 110 32.3858 110 60C110 62.887 109.755 65.7168 109.286 68.4698C108.822 71.1888 110.352 73.9385 113.009 74.6785Z" fill="black"/>
</mask>
<g mask="url(#mask0_69_1378)">
<path d="M-38 -15L-15 40L61 75H-38V-15Z" fill="#56C5CF"/>
</g>
</svg>
